<?xml version="1.0" encoding="UTF-8"?>
<svg width="752pt" height="752pt" version="1.1" viewBox="0 0 752 752" xmlns="http://www.w3.org/2000/svg">
 <path d="m277.59 268.38h32.633c3.5742-14.98 8.7539-30.148 16.305-43.637-20.141 9.5273-37.164 24.734-48.938 43.637zm120.1 269.94-21.688-21.688-21.688 21.688-14.684-14.676 21.691-21.688-21.688-21.68 14.684-14.684 21.68 21.68 21.68-21.68 14.684 14.684-21.688 21.68 21.691 21.688-14.684 14.676zm-197.37-49.727h123.4v26.73h-123.4zm109.9-97.938h-32.633c11.773 18.906 28.797 34.098 48.938 43.629-7.5508-13.508-12.73-28.633-16.305-43.629zm-44.418-25.328h39.805c-1.4805-11.438-2.2695-23.449-2.2695-35.816 0-12.367 0.78906-24.375 2.2695-35.816h-39.797c-3.6641 11.277-5.6445 23.312-5.6445 35.816 0 12.5 1.9727 24.531 5.6367 35.816zm208.61-96.953h-32.633c-3.5703-14.98-8.7539-30.148-16.301-43.637 20.137 9.5273 37.152 24.734 48.934 43.637zm-32.633 122.28h32.633c-11.781 18.906-28.789 34.098-48.934 43.629 7.5508-13.508 12.719-28.633 16.301-43.629zm44.418-25.328h-39.809c1.4805-11.438 2.2773-23.449 2.2773-35.816 0-12.367-0.79297-24.375-2.2773-35.816h39.809c3.6562 11.277 5.6367 23.312 5.6367 35.816 0 12.5-1.9727 24.531-5.6367 35.816zm-110.2 25.328h-39.746c4.7656 17.602 18.832 54.699 39.746 54.699s34.98-37.098 39.742-54.699zm0-96.957h-44.875c-1.6016 11.281-2.4609 23.309-2.4609 35.816 0 12.5 0.86328 24.531 2.4609 35.816h89.75c1.5938-11.281 2.457-23.312 2.457-35.816 0-12.508-0.86328-24.531-2.457-35.816zm0-80.02c-20.914 0-34.98 37.098-39.746 54.699h79.488c-4.7617-17.602-18.828-54.699-39.742-54.699zm52.281 274.91h123.4v26.73h-123.4z" fill="#fff" fill-rule="evenodd"/>
</svg>
