<?xml version="1.0" standalone="no"?>
<!DOCTYPE svg PUBLIC "-//W3C//DTD SVG 20010904//EN"
 "http://www.w3.org/TR/2001/REC-SVG-20010904/DTD/svg10.dtd">
<svg version="1.0" xmlns="http://www.w3.org/2000/svg"
 width="512.000000pt" height="512.000000pt" viewBox="0 0 512.000000 512.000000"
 preserveAspectRatio="xMidYMid meet">
<metadata>
Created by potrace 1.14, written by Peter Selinger 2001-2017
</metadata>
<g transform="translate(0.000000,512.000000) scale(0.100000,-0.100000)"
fill="#000000" stroke="none">
<path d="M2614 5068 c-624 -49 -1174 -475 -1364 -1057 -76 -233 -94 -519 -46
-746 96 -455 375 -826 792 -1052 78 -42 85 -48 63 -54 -87 -24 -300 -133 -442
-225 l-98 -64 -58 47 c-32 27 -172 145 -311 263 -139 118 -283 240 -319 270
-36 30 -102 85 -146 123 -98 85 -126 100 -190 100 -161 1 -229 -209 -100 -307
18 -14 39 -31 47 -39 7 -7 76 -66 153 -131 77 -65 163 -137 190 -161 28 -23
82 -69 120 -101 39 -32 75 -63 81 -69 6 -5 32 -28 59 -50 130 -108 200 -169
203 -176 2 -5 -12 -25 -32 -46 -123 -134 -235 -300 -321 -478 -101 -209 -174
-447 -154 -504 18 -52 221 -164 552 -305 322 -137 613 -218 899 -251 204 -23
759 -23 933 0 17 2 53 7 80 10 28 3 57 8 65 10 8 2 33 6 55 10 22 3 56 10 75
15 19 5 46 11 60 13 92 17 382 109 515 164 33 13 78 32 100 41 72 30 311 151
387 196 210 124 303 197 312 247 11 65 -144 427 -252 589 -242 362 -598 648
-987 794 l-89 34 55 27 c265 134 518 383 661 650 57 108 131 314 144 404 2 14
6 37 8 50 18 84 26 335 12 405 -3 16 -8 50 -11 75 -10 69 -53 225 -85 307
-144 361 -429 660 -790 827 -261 121 -530 169 -826 145z m946 -981 c49 -13
146 -67 185 -104 74 -70 116 -149 132 -248 9 -53 9 -392 0 -435 -24 -118 -111
-237 -214 -292 -106 -57 -83 -56 -932 -56 -713 0 -789 2 -846 17 -134 37 -238
131 -288 258 -26 65 -27 84 -28 305 0 184 2 213 21 269 49 144 169 254 312
283 49 10 238 12 848 11 432 -1 796 -5 810 -8z"/>
<path d="M2195 3716 c-65 -28 -115 -115 -115 -200 0 -71 16 -121 52 -162 59
-67 132 -83 198 -43 42 26 55 42 80 94 81 172 -62 378 -215 311z"/>
<path d="M3083 3718 c-100 -26 -161 -184 -115 -298 22 -55 51 -89 92 -110 51
-26 86 -25 140 4 89 48 129 178 87 288 -19 49 -84 117 -115 119 -9 1 -26 2
-37 4 -11 1 -35 -2 -52 -7z"/>
</g>
</svg>
